<?xml version="1.0" encoding="UTF-8" standalone="no"?><!DOCTYPE svg PUBLIC "-//W3C//DTD SVG 1.1//EN" "http://www.w3.org/Graphics/SVG/1.1/DTD/svg11.dtd"><svg width="100%" height="100%" viewBox="0 0 2084 2084" version="1.1" xmlns="http://www.w3.org/2000/svg" xmlns:xlink="http://www.w3.org/1999/xlink" xml:space="preserve" xmlns:serif="http://www.serif.com/" style="fill-rule:evenodd;clip-rule:evenodd;stroke-linecap:round;stroke-linejoin:round;stroke-miterlimit:1.5;"><g><path d="M683.888,936.576c15.579,-0 28.67,4.395 39.258,13.183c10.587,8.783 16.708,20.408 18.325,34.867l-28.413,-0c-1,-6.609 -4.304,-12.155 -9.916,-16.646c-5.613,-4.492 -12.025,-6.725 -19.255,-6.725c-11.466,-0 -20.383,4.108 -26.737,12.337c-6.35,8.229 -9.529,19.384 -9.529,33.471c-0,13.704 3.204,24.583 9.625,32.621c6.421,8.037 15.304,12.058 26.641,12.058c8.475,0 15.33,-2.583 20.567,-7.758c5.238,-5.179 8.475,-12.558 9.717,-22.15l28.421,-0c-1.496,16.946 -7.571,30.283 -18.23,40.004c-10.662,9.725 -24.145,14.583 -40.475,14.583c-19.566,0 -35.4,-6.458 -47.487,-19.354c-12.088,-12.896 -18.133,-29.566 -18.133,-50.004c-0,-20.696 5.979,-37.617 17.95,-50.762c11.975,-13.146 27.858,-19.725 47.67,-19.725Zm112.3,3.179l0,108.808l65.055,0l-0,24.675l-94.409,0l0,-133.483l29.354,-0Zm185.576,-0l-0,24.679l-70.48,-0l0,28.604l64.684,0l-0,22.808l-64.684,0l0,32.717l71.975,0l0,24.675l-101.325,0l0,-133.483l99.83,-0Zm92.104,-0l49.916,133.483l-30.47,0l-10.096,-29.725l-49.921,0l-10.463,29.725l-29.733,0l50.667,-133.483l30.1,-0Zm-15.517,32.908l-17.387,48.979l34.583,0l-16.825,-48.987l-0.371,-0l0,0.008Zm110.429,-32.908l55.713,89.554l0.366,-0l0,-89.554l27.484,-0l-0,133.483l-29.35,0l-55.525,-89.358l-0.375,-0l-0,89.358l-27.484,0l0,-133.483l29.171,-0Zm241.784,-0c11.22,-0 20.533,3.458 27.954,10.375c7.421,6.921 11.121,15.737 11.121,26.454c-0,16.7 -7.046,27.854 -21.13,33.467l0,0.375c4.742,1.37 8.446,3.641 11.13,6.82c2.683,3.18 4.7,6.892 6.075,11.125c1.37,4.23 2.241,11.034 2.612,20.384c0.504,12.208 2.246,20.375 5.233,24.483l-29.35,0c-1.616,-4.108 -2.862,-11.833 -3.737,-23.179c-0.992,-11.958 -3.175,-19.788 -6.546,-23.463c-3.367,-3.675 -8.846,-5.516 -16.446,-5.516l-29.541,-0l-0,52.158l-29.355,0l0,-133.483l71.979,-0Zm-10.279,60.383c6.23,0 11.121,-1.4 14.675,-4.204c3.555,-2.808 5.33,-7.758 5.33,-14.858c-0,-6.73 -1.746,-11.5 -5.234,-14.305c-3.483,-2.804 -8.479,-4.212 -14.962,-4.212l-32.154,-0l-0,37.579l32.345,0Zm177.355,-60.383l-0,24.679l-70.484,-0l0,28.604l64.684,0l-0,22.808l-64.684,0l0,32.717l71.979,0l0,24.675l-101.333,0l0,-133.483l99.838,-0Zm92.1,-0l49.916,133.483l-30.471,0l-10.095,-29.725l-49.921,0l-10.463,29.725l-29.725,0l50.659,-133.483l30.1,-0Zm-15.513,32.908l-17.396,48.979l34.592,0l-16.821,-48.987l-0.375,-0l0,0.008Zm141.087,-36.087c15.58,-0 28.663,4.395 39.259,13.183c10.591,8.783 16.7,20.408 18.317,34.867l-28.417,-0c-0.996,-6.609 -4.3,-12.155 -9.904,-16.646c-5.605,-4.492 -12.025,-6.725 -19.255,-6.725c-11.47,-0 -20.383,4.108 -26.737,12.337c-6.354,8.229 -9.537,19.384 -9.537,33.471c-0,13.704 3.212,24.583 9.633,32.621c6.421,8.037 15.292,12.058 26.633,12.058c8.479,0 15.334,-2.583 20.567,-7.758c5.233,-5.179 8.479,-12.558 9.721,-22.15l28.421,-0c-1.492,16.946 -7.575,30.283 -18.23,40.004c-10.65,9.725 -24.145,14.583 -40.47,14.583c-19.571,0 -35.4,-6.458 -47.496,-19.354c-12.092,-12.896 -18.134,-29.566 -18.134,-50.004c0,-20.696 5.988,-37.617 17.95,-50.762c11.967,-13.146 27.859,-19.725 47.68,-19.725Zm181.837,3.179l0,24.679l-40.004,-0l-0,108.804l-29.354,0l-0,-108.804l-40.013,-0l0,-24.679l109.371,-0Z" style="fill:#00dae3;fill-rule:nonzero;"/><g><g><path d="M381.571,1084.28c27.487,-51.746 98.65,-41.467 120.862,21.971l3.159,14.57c-56.571,16.417 -101.305,10.021 -131.696,-21.095l7.675,-15.446Z" style="fill:none;stroke:#32d6e0;stroke-width:13.96px;"/><path d="M505.592,1120.82c2.112,24.309 3.062,42.88 2.429,53.646" style="fill:none;stroke:#32d6e0;stroke-width:13.96px;"/><path d="M373.896,1099.73c-48.225,75.987 -124.417,116.691 -267.713,140.65c4.513,100.933 233.042,163.283 345.2,87.104" style="fill:none;stroke:#32d6e0;stroke-width:13.96px;"/><path d="M420.479,1052.38l58.571,-308.35c13.5,-35.554 59.271,-26.192 53.8,11.925l-57.621,308.704" style="fill:none;stroke:#32d6e0;stroke-width:13.96px;"/><path d="M272.75,1248.29c-43.304,22.4 -90.225,35.059 -139.017,42.359" style="fill:none;stroke:#32d6e0;stroke-width:13.96px;"/><path d="M393.108,1213.03c-37.104,60.033 -106.158,97.875 -197.616,120.15" style="fill:none;stroke:#32d6e0;stroke-width:13.96px;"/><path d="M392.554,1296.43c-22.479,25.942 -43.662,43.921 -82.8,63.975" style="fill:none;stroke:#32d6e0;stroke-width:13.96px;"/></g><g id="Layer1"><path d="M477.154,1228.61c-72.75,30.687 -30.775,131.837 44.779,98.867c41.363,42.054 86.188,46.916 130.867,4.766c103.771,42.763 118.296,-99.75 39.242,-109.8c-13.984,-64.141 -80.409,-79.779 -129.438,-37.437c-40.417,-19.238 -77.496,-1.521 -85.45,43.604Z" style="fill:none;stroke:#00dae3;stroke-width:13.96px;"/><path d="M592.921,1219.93c17.521,-25.384 51.021,-17.354 56.062,12.658" style="fill:none;stroke:#00dae3;stroke-width:13.96px;"/></g><g id="Layer2"><path d="M245.087,927.113l149.063,25.033" style="fill:none;stroke:#32d6e0;stroke-width:13.96px;"/><path d="M282.1,879.138l121.546,20.575" style="fill:none;stroke:#32d6e0;stroke-width:13.96px;"/><path d="M227.062,811.342l186.934,32.079" style="fill:none;stroke:#32d6e0;stroke-width:13.96px;"/></g></g></g></svg>